<svg width="280" height="302" viewBox="0 0 280 302" fill="none" xmlns="http://www.w3.org/2000/svg">
<path opacity="0.5" d="M243.235 109.639C261.152 90.315 261.152 58.9841 243.235 39.6599C225.319 20.3355 196.27 20.3355 178.353 39.6599L168.005 50.8218C168.146 51.2834 168.293 51.7512 168.446 52.2252C172.239 64.0177 179.396 79.4764 192.86 93.9977C206.323 108.519 220.655 116.238 231.589 120.33C232.027 120.493 232.459 120.651 232.884 120.803L243.235 109.639Z" fill="#656CB9"/>
<path d="M168.45 50.3334L168.004 50.8139C168.145 51.2755 168.292 51.7435 168.445 52.2175C172.238 64.0098 179.396 79.4686 192.859 93.99C206.322 108.511 220.655 116.231 231.589 120.322C232.022 120.484 232.45 120.641 232.873 120.792L133.001 228.511C126.268 235.773 122.9 239.404 119.189 242.527C114.809 246.212 110.071 249.37 105.058 251.947C100.808 254.132 96.2906 255.755 87.2568 259.003L39.6178 276.131C35.1721 277.729 30.2707 276.481 26.957 272.907C23.6433 269.332 22.4864 264.046 23.9683 259.252L39.8479 207.869C42.8593 198.126 44.3648 193.254 46.3903 188.67C48.7796 183.262 51.7078 178.152 55.1235 173.429C58.0188 169.426 61.3856 165.794 68.1183 158.532L168.45 50.3334Z" fill="#656CB9"/>
</svg>
