<svg width="280" height="302" viewBox="0 0 280 302" fill="none" xmlns="http://www.w3.org/2000/svg">
<path d="M61.5611 292.504C67.2 298.586 71.7733 303.518 80.36 294.265C88.9389 285.012 75.1877 270.181 83.7744 260.92L88.0677 256.289C96.6544 247.028 110.406 261.859 118.977 252.615C127.563 243.353 122.99 238.421 117.343 232.339L96.5222 209.89C90.8833 203.808 82.46 203.019 77.7233 208.137L39.1144 249.779C34.37 254.888 35.1011 263.973 40.74 270.055L61.5611 292.504Z" fill="#595858"/>
<path d="M8.01149 283.31C9.45604 284.868 11.1711 286.105 13.0588 286.948C14.9465 287.792 16.9698 288.226 19.0132 288.226C21.0565 288.226 23.0798 287.792 24.9675 286.948C26.8552 286.105 28.5703 284.868 30.0148 283.31L178.337 123.342C177.551 100.465 216.837 81.8168 205.839 69.9549C199.765 63.4032 172.838 117.411 151.62 104.702L8.01149 259.586C5.09527 262.732 3.45703 266.999 3.45703 271.448C3.45703 275.897 5.09527 280.163 8.01149 283.31Z" fill="#C5AC3D"/>
<path d="M131.592 31.3996C123.569 40.0521 119.061 51.7879 119.061 64.0252C119.06 76.2625 123.566 87.9989 131.588 96.6526C139.611 105.306 150.492 110.168 161.837 110.169C173.183 110.17 184.065 105.309 192.088 96.6568C200.111 88.0042 204.619 76.2684 204.62 64.0311C204.62 51.7938 200.114 40.0574 192.092 31.4038C184.07 22.7501 173.189 17.8881 161.843 17.8873C150.497 17.8865 139.616 22.747 131.592 31.3996ZM181.082 84.7865C175.977 90.293 169.052 93.3866 161.832 93.3866C154.612 93.3866 147.688 90.293 142.582 84.7865C137.477 79.2799 134.609 71.8114 134.609 64.024C134.609 60.168 135.313 56.3498 136.681 52.7874C138.049 49.2249 140.054 45.988 142.582 43.2615C147.688 37.7549 154.612 34.6614 161.832 34.6614C169.052 34.6614 175.977 37.7549 181.082 43.2615C186.188 48.768 189.056 56.2365 189.056 64.024C189.056 71.8114 186.188 79.2799 181.082 84.7865Z" fill="#595858"/>
<path d="M203.086 13.6068C199.027 17.8698 195.794 22.9598 193.574 28.5814C191.354 34.2029 190.192 40.244 190.154 46.3541C190.117 52.4641 191.205 58.5214 193.355 64.1743C195.505 69.8272 198.675 74.9631 202.681 79.2839C206.686 83.6048 211.448 87.0244 216.688 89.3445C221.929 91.6645 227.545 92.8387 233.21 92.7988C238.875 92.759 244.476 91.5059 249.688 89.1124C254.901 86.7188 259.62 83.2324 263.573 78.8556C271.422 70.1657 275.781 58.4913 275.708 46.36C275.635 34.2287 271.134 22.6167 263.182 14.0378C255.229 5.45899 244.463 0.603661 233.216 0.522994C221.968 0.442327 211.144 5.14281 203.086 13.6068ZM252.583 66.9938C247.476 72.4992 240.55 75.5908 233.329 75.5884C226.108 75.5861 219.184 72.49 214.079 66.9812C208.975 61.4724 206.109 54.0022 206.111 46.214C206.113 38.4257 208.984 30.9574 214.091 25.452C216.62 22.7259 219.622 20.5639 222.926 19.0892C226.229 17.6145 229.77 16.8561 233.346 16.8573C236.921 16.8584 240.461 17.6192 243.764 19.096C247.067 20.5728 250.068 22.7369 252.595 25.4645C255.122 28.1922 257.127 31.4301 258.494 34.9934C259.862 38.5566 260.565 42.3754 260.564 46.2318C260.563 50.0881 259.857 53.9064 258.488 57.4688C257.119 61.0312 255.112 64.2677 252.583 66.9938Z" fill="#595858"/>
<path d="M186.581 90.7174C182.608 95.0017 179.456 100.088 177.306 105.686C175.156 111.284 174.049 117.284 174.049 123.343C174.048 129.402 175.155 135.402 177.304 141.001C179.454 146.599 182.605 151.686 186.577 155.97C190.549 160.255 195.265 163.654 200.455 165.973C205.645 168.293 211.208 169.486 216.826 169.487C222.444 169.487 228.006 168.294 233.197 165.976C238.387 163.657 243.103 160.259 247.076 155.975C255.099 147.322 259.607 135.586 259.608 123.349C259.609 111.112 255.102 99.3753 247.08 90.7216C239.058 82.068 228.177 77.206 216.831 77.2052C205.485 77.2044 194.604 82.0649 186.581 90.7174ZM236.086 144.104C230.981 149.611 224.056 152.704 216.836 152.704C209.616 152.704 202.692 149.611 197.586 144.104C192.481 138.598 189.613 131.129 189.613 123.342C189.613 115.554 192.481 108.086 197.586 102.579C202.692 97.0728 209.616 93.9792 216.836 93.9792C224.056 93.9792 230.981 97.0728 236.086 102.579C241.192 108.086 244.06 115.554 244.06 123.342C244.06 131.129 241.192 138.598 236.086 144.104Z" fill="#595858"/>
<path d="M150.842 152.997C153.76 156.144 155.399 160.412 155.399 164.863C155.399 169.313 153.76 173.582 150.842 176.729C147.924 179.876 143.967 181.644 139.841 181.644C135.714 181.644 131.757 179.876 128.839 176.729L106.836 152.997C103.919 149.849 102.281 145.582 102.281 141.132C102.282 136.682 103.922 132.415 106.839 129.269C109.757 126.123 113.714 124.356 117.84 124.356C121.966 124.357 125.922 126.126 128.839 129.273L150.842 152.997Z" fill="#C5AC3D"/>
<path d="M202.222 83.889C206.518 83.889 210 80.1332 210 75.5001C210 70.867 206.518 67.1112 202.222 67.1112C197.927 67.1112 194.444 70.867 194.444 75.5001C194.444 80.1332 197.927 83.889 202.222 83.889Z" fill="#595858"/>
</svg>
