<svg width="383" height="257" viewBox="0 0 383 257" fill="none" xmlns="http://www.w3.org/2000/svg">
<path d="M190 0.526367C212.285 0.526367 230.351 16.6126 230.351 36.456C230.351 56.2993 212.285 72.3862 190 72.3862C167.715 72.3862 149.65 56.2993 149.65 36.456C149.65 16.6126 167.715 0.526367 190 0.526367ZM149.649 117.636C144.269 120.031 135.4 140.877 140.264 143.685L114.07 139.394C131.89 133.646 135.459 124.042 136.906 106.52L135.533 95.6257C141.385 91.2885 150.041 81.706 157.719 81.7067H222.28C230.127 81.706 237.021 84.6783 242.96 89.1785L246.743 101.58C246.743 116.222 259.27 120.625 272.361 127.717L254.057 127.376C249.298 127.225 244.891 128.178 240.833 129.913C237.396 124.654 233.147 118.881 230.351 117.636L231.259 135.826C214.177 149.794 205.636 176.142 205.636 176.142L202.684 189.194L194.035 189.495C188.231 189.495 182.532 189.091 176.973 188.312C172.548 177.845 162.902 158.951 148.035 150.137L149.649 117.636ZM89.6271 67.558C111.913 67.558 129.979 83.6442 129.979 103.488C129.979 123.331 111.913 139.418 89.6271 139.418C67.3421 139.418 49.2765 123.331 49.2765 103.488C49.2765 83.6442 67.3421 67.558 89.6271 67.558ZM49.2765 184.667C43.8965 187.062 33.1364 206.224 33.1364 206.224C33.1364 206.224 27.7564 213.411 25.066 242.154L0.855469 234.968L8.9259 199.039C8.9259 199.039 25.066 148.737 57.3462 148.738H121.907C154.189 148.737 170.329 199.039 170.329 199.039L178.399 234.968L154.189 242.155C151.499 213.411 146.119 206.224 146.119 206.224C146.119 206.224 135.359 187.062 129.979 184.667L133.239 249.927C120.971 254.188 107.624 256.526 93.6628 256.526C76.6443 256.526 60.5374 253.052 46.1882 246.856L49.2765 184.667ZM293.903 53.9563C316.189 54.663 334.255 71.3218 334.255 91.1652C334.255 111.009 316.189 126.522 293.903 125.816C271.618 125.109 253.553 108.451 253.553 88.6072C253.553 68.7638 271.618 53.2502 293.903 53.9563ZM253.553 169.786C248.173 172.011 237.413 190.832 237.413 190.832C237.413 190.832 232.033 197.847 229.342 226.506L205.132 218.552L213.202 182.879C213.202 182.879 229.342 133.089 261.622 134.113L326.184 136.159C358.465 137.182 374.605 187.995 374.605 187.995L382.675 224.181L358.465 230.6C355.775 201.771 350.396 194.414 350.396 194.414C350.396 194.414 339.635 174.91 334.255 172.344L337.515 237.708C325.248 241.58 311.9 243.495 297.939 243.053C280.921 242.513 264.814 238.528 250.464 231.878L253.553 169.786Z" fill="white"/>
</svg>
